<svg t="1695038056222" class="icon" viewBox="0 0 1024 1024" version="1.1" xmlns="http://www.w3.org/2000/svg" p-id="1618" width="200" height="200"><path d="M978.5 864.9h-37.9v-59.8c0-11-8.9-19.9-19.9-19.9H841c-11 0-19.9 8.9-19.9 19.9v59.8h-41.3c-9.7-67.5-67.9-119.6-138.1-119.6h-31.9s-0.1-132.1-0.4-133.4c2.4-29.6-7.7-59.9-30.2-82.5L473.7 424l124.8-124.8c6-6 11.1-12.9 15.1-20.4h123.8c11 0 19.9-8.9 19.9-19.9V239h46.5v20c0 7.1 3.8 13.7 10 17.3l69.1 39.9c3 1.8 6.5 2.7 10 2.7 3.4 0 6.9-0.9 10-2.7l69.1-39.9c9.5-5.5 12.8-17.7 7.3-27.2-5.5-9.5-17.7-12.8-27.2-7.3L893 275.9l-49.2-28.4v-56.8l49.2-28.4 59.1 34.1c9.5 5.5 21.7 2.2 27.2-7.3s2.2-21.7-7.3-27.2L902.9 122c-6.2-3.6-13.8-3.6-19.9 0l-69.1 39.9c-6.2 3.6-10 10.1-10 17.3v20h-46.5v-19.9c0-11-8.9-19.9-19.9-19.9H566c-29.6-10.1-63.8-3.4-87.4 20.2l-145 145c-53.7 9.5-94.6 56.5-94.6 112.8 0 37.7 18.3 71.2 46.5 92.1 3.6 5.2 7.7 10.1 12.1 14.6l109.2 109.2v92.1h-24.4c-70.2 0-128.4 52.1-138.1 119.6H203v-59.8c0-11-8.9-19.9-19.9-19.9h-79.7c-11 0-19.9 8.9-19.9 19.9V865h-38c-11 0-19.9 8.9-19.9 19.9 0 11 8.9 19.9 19.9 19.9h932.9c11 0 19.9-8.9 19.9-19.9 0.1-11.1-8.8-20-19.8-20zM717.3 199.1V239h-94.1c-0.1-13.7-3.4-27.5-10.1-39.9h104.2zM163.1 864.9h-39.9V825h39.9v39.9z m343.7-657.3c8.5-8.5 19.7-13.1 31.7-13.1s23.2 4.7 31.7 13.1c17.5 17.5 17.5 45.9 0 63.4L455.8 385.5c-14-27.6-38.9-48.8-69-57.9l120-120zM278.9 437.3c0-41.2 33.5-74.8 74.8-74.8 41.2 0 74.8 33.5 74.8 74.8S394.8 512 353.6 512s-74.7-33.5-74.7-74.7z m82.7 114.3c48.3-3.4 88.4-36.7 101.8-81.5l87.4 87.4c25.3 25.3 25.3 66.4 0 91.6-12.2 12.2-28.5 19-45.8 19-17.3 0-33.6-6.7-45.8-19 0 0.1-97.6-97.5-97.6-97.5z m208.2 133.9v59.7H446.7v-55c17.6 11.8 38 17.7 58.4 17.7 22.9 0.1 45.8-7.4 64.7-22.4z m-285 179.4c9.3-45.4 49.5-79.7 97.7-79.7h259.1c48.1 0 88.4 34.3 97.7 79.7H284.8z m615.9 0h-39.9V825h39.9v39.9z" fill="#666666" p-id="1619"></path><path d="M353.6 417.3c-11 0-19.9 8.9-19.9 19.9 0 11 8.9 19.9 19.9 19.9 11 0 19.9-8.9 19.9-19.9 0-10.9-8.9-19.9-19.9-19.9z" fill="#666666" p-id="1620"></path></svg>